<svg width="96" height="96" viewBox="0 0 96 96" fill="none" xmlns="http://www.w3.org/2000/svg">
<path d="M72.557 42.187C73.502 40.271 74.001 38.166 74.001 36C74.001 28.28 67.721 22 60.001 22C55.4 22 51.106 24.281 48.505 28.021C48.337 28.016 48.171 28 48.002 28C40.338 28 33.783 33.012 31.691 40.184C31.114 40.079 30.509 40 30.002 40C23.936 40 19.002 44.935 19.002 51C19.002 57.065 23.936 62 30.002 62H66.002C72.067 62 77.002 57.065 77.002 51C77.002 47.392 75.248 44.194 72.557 42.187ZM60.001 26C65.515 26 70.001 30.486 70.001 36C70.001 37.548 69.641 39.05 68.965 40.417C68.02 40.152 67.029 40 66.002 40C65.494 40 64.89 40.079 64.312 40.184C62.704 34.673 58.458 30.449 53.102 28.783C54.94 27.03 57.398 26 60.001 26ZM66.002 58H30.002C26.143 58 23.002 54.859 23.002 51C23.002 47.141 26.143 44 30.002 44C30.279 44 30.725 44.068 31.195 44.162V46C31.195 47.104 32.091 48 33.195 48C34.299 48 35.195 47.104 35.195 46V42.781C36.268 36.528 41.631 32 48.002 32C54.374 32 59.738 36.53 60.809 42.786V46C60.809 47.104 61.705 48 62.809 48C63.913 48 64.809 47.104 64.809 46V44.163C65.28 44.069 65.728 44 66.002 44C69.861 44 73.002 47.141 73.002 51C73.002 54.859 69.861 58 66.002 58Z" fill="white"/>
<path d="M60 18C61.104 18 62 17.104 62 16V12C62 10.896 61.104 10 60 10C58.895 10 58 10.896 58 12V16C58 17.104 58.895 18 60 18Z" fill="white"/>
<path d="M84 34H80C78.895 34 78 34.896 78 36C78 37.104 78.895 38 80 38H84C85.104 38 86 37.104 86 36C86 34.896 85.104 34 84 34Z" fill="white"/>
<path d="M74.1443 23.857C74.6563 23.857 75.1673 23.662 75.5583 23.271L78.3863 20.443C79.1673 19.662 79.1673 18.396 78.3863 17.615C77.6053 16.834 76.3393 16.834 75.5583 17.615L72.7303 20.443C71.9493 21.224 71.9493 22.49 72.7303 23.271C73.1203 23.662 73.6323 23.857 74.1443 23.857Z" fill="white"/>
<path d="M44.443 23.271C44.834 23.662 45.345 23.857 45.857 23.857C46.369 23.857 46.88 23.662 47.271 23.271C48.052 22.49 48.052 21.224 47.271 20.443L44.443 17.615C43.662 16.834 42.396 16.834 41.615 17.615C40.834 18.396 40.834 19.662 41.615 20.443L44.443 23.271Z" fill="white"/>
</svg>
