<svg width="96" height="96" viewBox="0 0 96 96" fill="none" xmlns="http://www.w3.org/2000/svg">
<path d="M48.001 78C46.896 78 46.001 78.896 46.001 80V84C46.001 85.104 46.896 86 48.001 86C49.105 86 50.001 85.104 50.001 84V80C50.001 78.896 49.105 78 48.001 78ZM44.444 23.271C44.835 23.662 45.346 23.857 45.858 23.857C46.37 23.857 46.882 23.662 47.272 23.271C48.053 22.49 48.053 21.224 47.272 20.443L44.444 17.615C43.663 16.834 42.397 16.834 41.616 17.615C40.835 18.396 40.835 19.662 41.616 20.443L44.444 23.271ZM60.001 18C61.105 18 62.001 17.104 62.001 16V12C62.001 10.896 61.105 10 60.001 10C58.896 10 58.001 10.896 58.001 12V16C58.001 17.104 58.896 18 60.001 18ZM74.144 23.857C74.656 23.857 75.167 23.662 75.558 23.271L78.386 20.443C79.167 19.662 79.167 18.396 78.386 17.615C77.605 16.834 76.339 16.834 75.558 17.615L72.7299 20.443C71.9489 21.224 71.9489 22.49 72.7299 23.271C73.1199 23.662 73.632 23.857 74.144 23.857ZM39.001 72C37.896 72 37.001 72.896 37.001 74V78C37.001 79.104 37.896 80 39.001 80C40.105 80 41.001 79.104 41.001 78V74C41.001 72.896 40.105 72 39.001 72ZM84.001 34H80.001C78.896 34 78.001 34.896 78.001 36C78.001 37.104 78.896 38 80.001 38H84.001C85.105 38 86.001 37.104 86.001 36C86.001 34.896 85.105 34 84.001 34ZM48.001 66C46.896 66 46.001 66.896 46.001 68V72C46.001 73.104 46.896 74 48.001 74C49.105 74 50.001 73.104 50.001 72V68C50.001 66.896 49.105 66 48.001 66ZM72.557 42.187C73.502 40.271 74.001 38.166 74.001 36C74.001 28.28 67.721 22 60.001 22C55.4 22 51.106 24.281 48.505 28.021C48.337 28.016 48.171 28 48.002 28C40.338 28 33.783 33.012 31.69 40.184C31.114 40.079 30.509 40 30.002 40C23.936 40 19.002 44.935 19.002 51C19.002 57.065 23.936 62 30.002 62H37.001V66C37.001 67.104 37.896 68 39.001 68C40.105 68 41.001 67.104 41.001 66V62H55.001V66C55.001 67.104 55.896 68 57.001 68C58.105 68 59.001 67.104 59.001 66V62H66.002C72.067 62 77.002 57.065 77.002 51C77.002 47.392 75.248 44.194 72.557 42.187ZM60.001 26C65.515 26 70.001 30.486 70.001 36C70.001 37.548 69.641 39.05 68.965 40.417C68.02 40.152 67.029 40 66.002 40C65.494 40 64.89 40.079 64.312 40.184C62.704 34.673 58.458 30.449 53.102 28.783C54.94 27.03 57.398 26 60.001 26ZM66.002 58H30.002C26.143 58 23.002 54.859 23.002 51C23.002 47.141 26.143 44 30.002 44C30.279 44 30.725 44.068 31.194 44.162V46C31.194 47.104 32.09 48 33.194 48C34.298 48 35.194 47.104 35.194 46V42.786C36.265 36.53 41.629 32 48.002 32C54.372 32 59.735 36.528 60.808 42.781V46C60.808 47.104 61.704 48 62.808 48C63.912 48 64.808 47.104 64.808 46V44.163C65.279 44.069 65.728 44 66.002 44C69.861 44 73.002 47.141 73.002 51C73.002 54.859 69.861 58 66.002 58ZM57.001 72C55.896 72 55.001 72.896 55.001 74V78C55.001 79.104 55.896 80 57.001 80C58.105 80 59.001 79.104 59.001 78V74C59.001 72.896 58.105 72 57.001 72Z" fill="white"/>
</svg>
