<svg width="96" height="96" viewBox="0 0 96 96" fill="none" xmlns="http://www.w3.org/2000/svg">
<path d="M72.555 42.188C73.5 40.273 73.999 38.167 73.999 36C73.999 28.28 67.719 22 59.999 22C55.398 22 51.104 24.281 48.503 28.021C48.335 28.016 48.169 28 48 28C40.336 28 33.781 33.012 31.688 40.184C31.112 40.079 30.507 40 30 40C23.935 40 19 44.935 19 51C19 57.065 23.935 62 30 62C31.104 62 32 61.104 32 60C32 58.896 31.104 58 30 58C26.141 58 23 54.859 23 51C23 47.141 26.141 44 30 44C30.277 44 30.723 44.068 31.193 44.162V46C31.193 47.104 32.089 48 33.193 48C34.297 48 35.193 47.104 35.193 46V42.781C36.266 36.528 41.629 32 48 32C54.37 32 59.733 36.528 60.807 42.782V46C60.807 47.104 61.702 48 62.807 48C63.912 48 64.807 47.104 64.807 46V44.162C65.277 44.068 65.723 44 66 44C69.859 44 73 47.141 73 51C73 54.859 69.859 58 66 58C64.896 58 64 58.896 64 60C64 61.104 64.896 62 66 62C72.065 62 77 57.065 77 51C77 47.393 75.246 44.194 72.555 42.188ZM64.311 40.184C62.703 34.673 58.456 30.449 53.1 28.783C54.938 27.03 57.396 26 59.999 26C65.513 26 69.999 30.486 69.999 36C69.999 37.549 69.639 39.051 68.964 40.417C68.019 40.152 67.028 40 66 40C65.492 40 64.888 40.079 64.311 40.184Z" fill="white"/>
<path d="M59.998 18C61.102 18 61.998 17.104 61.998 16V12C61.998 10.896 61.102 10 59.998 10C58.893 10 57.998 10.896 57.998 12V16C57.998 17.104 58.893 18 59.998 18Z" fill="white"/>
<path d="M83.998 34H79.998C78.893 34 77.998 34.896 77.998 36C77.998 37.104 78.893 38 79.998 38H83.998C85.102 38 85.998 37.104 85.998 36C85.998 34.896 85.102 34 83.998 34Z" fill="white"/>
<path d="M74.1423 23.857C74.6543 23.857 75.1653 23.662 75.5563 23.271L78.3843 20.443C79.1653 19.662 79.1653 18.396 78.3843 17.615C77.6033 16.834 76.3373 16.834 75.5563 17.615L72.7283 20.443C71.9473 21.224 71.9473 22.49 72.7283 23.271C73.1183 23.662 73.6303 23.857 74.1423 23.857Z" fill="white"/>
<path d="M44.443 23.271C44.834 23.662 45.345 23.857 45.857 23.857C46.369 23.857 46.88 23.662 47.271 23.271C48.052 22.49 48.052 21.224 47.271 20.443L44.443 17.615C43.662 16.834 42.396 16.834 41.615 17.615C40.834 18.396 40.834 19.662 41.615 20.443L44.443 23.271Z" fill="white"/>
<path d="M49.4843 52.0602C48.4153 51.7922 47.3272 52.4442 47.0582 53.5152L41.0582 77.5152C40.7902 78.5872 41.4422 79.6732 42.5132 79.9412C42.6762 79.9822 42.8392 80.0012 43.0002 80.0012C43.8962 80.0012 44.7112 79.3952 44.9382 78.4862L50.9382 54.4862C51.2072 53.4132 50.5563 52.3272 49.4843 52.0602Z" fill="white"/>
<path d="M57.4842 58.0599C56.4162 57.7929 55.3272 58.4439 55.0582 59.5149L52.0582 71.5149C51.7902 72.5869 52.4422 73.6729 53.5132 73.9409C53.6762 73.9819 53.8392 74.0009 54.0002 74.0009C54.8952 74.0009 55.7112 73.3949 55.9382 72.4859L58.9382 60.4859C59.2072 59.4129 58.5562 58.3269 57.4842 58.0599Z" fill="white"/>
<path d="M38.4842 58.0599C37.4162 57.7929 36.3272 58.4439 36.0582 59.5149L33.0582 71.5149C32.7902 72.5869 33.4422 73.6729 34.5132 73.9409C34.6762 73.9819 34.8392 74.0009 35.0002 74.0009C35.8962 74.0009 36.7112 73.3949 36.9382 72.4859L39.9382 60.4859C40.2072 59.4129 39.5562 58.3269 38.4842 58.0599Z" fill="white"/>
</svg>
