<svg width="96" height="96" viewBox="0 0 96 96" fill="none" xmlns="http://www.w3.org/2000/svg">
<path d="M69.24 40.488C72.173 37.886 74 34.094 74 30C74 28.896 73.104 28 72 28C66.486 28 62 23.514 62 18C62 16.896 61.104 16 60 16C52.922 16 47.069 21.284 46.143 28.111C39.295 28.848 33.61 33.599 31.689 40.183C31.112 40.079 30.507 40 30 40C23.935 40 19 44.935 19 51C19 57.065 23.935 62 30 62C31.104 62 32 61.104 32 60C32 58.896 31.104 58 30 58C26.141 58 23 54.859 23 51C23 47.141 26.141 44 30 44C30.277 44 30.723 44.068 31.193 44.162V46C31.193 47.104 32.088 48 33.193 48C34.298 48 35.193 47.104 35.193 46V42.781C36.266 36.528 41.629 32 48 32C54.37 32 59.733 36.528 60.807 42.782V46C60.807 47.104 61.703 48 62.807 48C63.911 48 64.807 47.104 64.807 46V44.162C65.277 44.068 65.723 44 66 44C69.859 44 73 47.141 73 51C73 54.859 69.859 58 66 58C64.895 58 64 58.896 64 60C64 61.104 64.895 62 66 62C72.065 62 77 57.065 77 51C77 46.062 73.728 41.875 69.24 40.488ZM50.174 28.15C50.933 24.111 54.126 20.92 58.168 20.168C59.102 26.153 63.843 30.896 69.828 31.832C69.213 35.078 66.988 37.838 63.966 39.158C61.811 33.21 56.519 28.952 50.174 28.15Z" fill="white"/>
<path d="M49.4843 52.0602C48.4173 51.7922 47.3272 52.4442 47.0582 53.5152L41.0582 77.5152C40.7902 78.5872 41.4422 79.6732 42.5132 79.9412C42.6762 79.9822 42.8392 80.0012 43.0002 80.0012C43.8952 80.0012 44.7112 79.3952 44.9382 78.4862L50.9382 54.4862C51.2072 53.4132 50.5563 52.3272 49.4843 52.0602Z" fill="white"/>
<path d="M57.4842 58.0599C56.4152 57.7929 55.3272 58.4439 55.0582 59.5149L52.0582 71.5149C51.7902 72.5869 52.4422 73.6729 53.5132 73.9409C53.6762 73.9819 53.8392 74.0009 54.0002 74.0009C54.8952 74.0009 55.7112 73.3949 55.9382 72.4859L58.9382 60.4859C59.2072 59.4129 58.5562 58.3269 57.4842 58.0599Z" fill="white"/>
<path d="M38.4842 58.0599C37.4152 57.7929 36.3272 58.4439 36.0582 59.5149L33.0582 71.5149C32.7902 72.5869 33.4422 73.6729 34.5132 73.9409C34.6762 73.9819 34.8392 74.0009 35.0002 74.0009C35.8952 74.0009 36.7112 73.3949 36.9382 72.4859L39.9382 60.4859C40.2072 59.4129 39.5562 58.3269 38.4842 58.0599Z" fill="white"/>
</svg>
