<svg width="96" height="96" viewBox="0 0 96 96" fill="none" xmlns="http://www.w3.org/2000/svg">
<path d="M69.24 40.488C72.173 37.886 74 34.094 74 30C74 28.896 73.104 28 72 28C66.486 28 62 23.514 62 18C62 16.896 61.104 16 60 16C52.922 16 47.069 21.284 46.143 28.111C39.295 28.848 33.61 33.599 31.689 40.183C31.112 40.079 30.507 40 30 40C23.935 40 19 44.935 19 51C19 57.065 23.935 62 30 62H41.263L37.336 67.891C36.927 68.504 36.889 69.293 37.236 69.944C37.585 70.594 38.263 71 39 71H41.263L37.336 76.891C36.724 77.81 36.972 79.052 37.891 79.664C38.231 79.892 38.617 80 38.998 80C39.644 80 40.278 79.687 40.664 79.109L46.664 70.109C47.073 69.496 47.111 68.707 46.764 68.056C46.415 67.406 45.737 67 45 67H42.737L46.07 62H51.262L49.335 64.891C48.926 65.504 48.888 66.293 49.235 66.944C49.585 67.594 50.263 68 51 68H53.263L51.336 70.891C50.724 71.81 50.972 73.052 51.891 73.664C52.231 73.892 52.617 74 52.998 74C53.644 74 54.278 73.687 54.664 73.109L58.664 67.109C59.073 66.496 59.111 65.707 58.764 65.056C58.415 64.406 57.737 64 57 64H54.737L56.07 62H66C72.065 62 77 57.065 77 51C77 46.062 73.728 41.875 69.24 40.488ZM58.168 20.168C59.102 26.153 63.843 30.896 69.828 31.832C69.213 35.078 66.988 37.838 63.966 39.158C61.812 33.21 56.519 28.952 50.174 28.15C50.933 24.111 54.126 20.92 58.168 20.168ZM66 58H30C26.141 58 23 54.859 23 51C23 47.141 26.141 44 30 44C30.277 44 30.723 44.068 31.193 44.162V46C31.193 47.104 32.089 48 33.193 48C34.297 48 35.193 47.104 35.193 46V42.781C36.266 36.528 41.629 32 48 32C54.37 32 59.733 36.528 60.807 42.782V46C60.807 47.104 61.703 48 62.807 48C63.911 48 64.807 47.104 64.807 46V44.163C65.277 44.069 65.726 44 66 44C69.859 44 73 47.141 73 51C73 54.859 69.859 58 66 58Z" fill="white"/>
</svg>
