<svg width="96" height="96" viewBox="0 0 96 96" fill="none" xmlns="http://www.w3.org/2000/svg">
<path d="M74.9768 61.269L68.7648 57.682L72.2998 56.735C73.3668 56.449 73.9998 55.352 73.7138 54.286C73.4288 53.22 72.3298 52.581 71.2648 52.872L63.8668 54.854L58.3738 51.683L64.9068 49.932C65.7318 49.711 66.3258 48.991 66.3848 48.138C66.4438 47.286 65.9548 46.491 65.1678 46.159L59.4048 43.723L63.8678 41.146L71.2638 43.127C71.4378 43.174 71.6118 43.196 71.7828 43.196C72.6668 43.196 73.4738 42.606 73.7138 41.713C73.9998 40.646 73.3658 39.549 72.2998 39.264L68.7678 38.318L74.9788 34.732C75.9358 34.179 76.2628 32.957 75.7118 32C75.1578 31.043 73.9348 30.715 72.9788 31.268L66.7688 34.853L67.7138 31.323C67.9998 30.256 67.3658 29.159 66.2998 28.874C65.2258 28.584 64.1368 29.222 63.8508 30.288L61.8708 37.682L57.4078 40.259L58.1788 34.052C58.2788 33.254 57.8908 32.475 57.1948 32.073C56.4998 31.673 55.6288 31.726 54.9888 32.21L50.0008 35.981V30.829L55.4128 25.417C56.1938 24.636 56.1938 23.37 55.4128 22.589C54.6318 21.808 53.3658 21.808 52.5848 22.589L50.0008 25.173V18C50.0008 16.896 49.1048 16 48.0008 16C46.8958 16 46.0008 16.896 46.0008 18V25.174L43.4138 22.586C42.6328 21.805 41.3668 21.805 40.5858 22.586C39.8048 23.366 39.8048 24.633 40.5858 25.414L46.0008 30.83V35.98L41.0098 32.203C40.3278 31.687 39.3948 31.662 38.6868 32.139C37.9778 32.616 37.6498 33.491 37.8718 34.316L39.6238 40.856L34.1308 37.685L32.1478 30.289C31.8628 29.223 30.7648 28.586 29.6988 28.875C28.6318 29.161 27.9988 30.258 28.2848 31.324L29.2308 34.855L23.0198 31.269C22.0608 30.716 20.8398 31.044 20.2878 32.001C19.7358 32.958 20.0628 34.181 21.0198 34.733L27.2298 38.318L23.6998 39.264C22.6328 39.55 21.9998 40.647 22.2858 41.713C22.5248 42.607 23.3328 43.196 24.2168 43.196C24.3878 43.195 24.5628 43.174 24.7358 43.127L32.1298 41.146L37.6218 44.317L31.0928 46.067C30.2678 46.288 29.6738 47.008 29.6158 47.861C29.5568 48.713 30.0458 49.508 30.8328 49.84L36.5928 52.276L32.1288 54.853L24.7378 52.872C23.6728 52.583 22.5738 53.22 22.2888 54.286C22.0028 55.352 22.6358 56.449 23.7028 56.735L27.2298 57.681L21.0218 61.265C20.0648 61.818 19.7378 63.04 20.2898 63.997C20.6608 64.639 21.3328 64.997 22.0238 64.997C22.3628 64.997 22.7078 64.911 23.0218 64.729L29.2348 61.142L28.2878 64.677C28.0018 65.743 28.6348 66.84 29.7018 67.126C29.8748 67.173 30.0498 67.195 30.2198 67.195C31.1028 67.195 31.9108 66.605 32.1508 65.712L34.1328 58.314L38.5938 55.739L37.8228 61.947C37.7228 62.744 38.1108 63.523 38.8068 63.926C39.5028 64.326 40.3728 64.273 41.0128 63.789L45.9998 60.018V65.171L40.5848 70.586C39.8038 71.367 39.8038 72.633 40.5848 73.414C41.3658 74.195 42.6318 74.195 43.4128 73.414L45.9998 70.827V78C45.9998 79.104 46.8948 80 47.9998 80C49.1038 80 49.9998 79.104 49.9998 78V70.829L52.5848 73.414C52.9758 73.805 53.4868 74 53.9988 74C54.5108 74 55.0218 73.805 55.4128 73.414C56.1938 72.633 56.1938 71.367 55.4128 70.586L49.9998 65.173V60.021L54.9938 63.798C55.3488 64.067 55.7738 64.203 56.1998 64.203C56.5898 64.203 56.9788 64.09 57.3168 63.862C58.0258 63.384 58.3528 62.509 58.1308 61.684L56.3768 55.149L61.8708 58.321L63.8498 65.713C64.0888 66.607 64.8968 67.196 65.7808 67.196C65.9518 67.196 66.1258 67.174 66.2998 67.127C67.3658 66.842 67.9998 65.745 67.7138 64.678L66.7698 61.15L72.9778 64.734C73.2938 64.916 73.6368 65.002 73.9758 65.002C74.6668 65.002 75.3388 64.644 75.7098 64.002C76.2618 63.044 75.9348 61.821 74.9768 61.269ZM58.2468 47.575L53.4748 48.854L51.9958 48L55.0628 46.229L58.2468 47.575ZM53.6248 38.252L53.0638 42.764L49.9988 44.534V40.995L53.6248 38.252ZM43.2398 38.909L45.9988 40.996V44.538L44.5188 43.684L43.2398 38.909ZM37.7468 48.425L42.5158 47.147L43.9938 48L40.9288 49.771L37.7468 48.425ZM42.3698 57.747L42.9298 53.234L45.9998 51.462V55.003L42.3698 57.747ZM52.7578 57.092L49.9998 55.007V51.467L51.4768 52.321L52.7578 57.092Z" fill="white"/>
</svg>
