<svg width="96" height="96" viewBox="0 0 96 96" fill="none" xmlns="http://www.w3.org/2000/svg">
<path d="M24 26.001H66C67.104 26.001 68 25.105 68 24.001C68 22.897 67.104 22.001 66 22.001H24C22.896 22.001 22 22.897 22 24.001C22 25.105 22.896 26.001 24 26.001Z" fill="white"/>
<path d="M66 30H27C25.896 30 25 30.896 25 32C25 33.104 25.896 34 27 34H66C67.104 34 68 33.104 68 32C68 30.896 67.104 30 66 30Z" fill="white"/>
<path d="M62 40C62 38.896 61.104 38 60 38H24C22.896 38 22 38.896 22 40C22 41.104 22.896 42 24 42H60C61.104 42 62 41.104 62 40Z" fill="white"/>
<path d="M66 46H33C31.896 46 31 46.896 31 48C31 49.104 31.896 50 33 50H66C67.104 50 68 49.104 68 48C68 46.896 67.104 46 66 46Z" fill="white"/>
<path d="M60 54H42C40.896 54 40 54.896 40 56C40 57.104 40.896 58 42 58H60C61.104 58 62 57.104 62 56C62 54.896 61.104 54 60 54Z" fill="white"/>
<path d="M54 62H42C40.896 62 40 62.896 40 64C40 65.104 40.896 66 42 66H54C55.104 66 56 65.104 56 64C56 62.896 55.104 62 54 62Z" fill="white"/>
<path d="M48 70H42C40.896 70 40 70.896 40 72C40 73.104 40.896 74 42 74H48C49.104 74 50 73.104 50 72C50 70.896 49.104 70 48 70Z" fill="white"/>
</svg>
